<svg width="34" height="34" viewBox="0 0 34 34" fill="none" xmlns="http://www.w3.org/2000/svg">
<path d="M2 13.8421H32M2 13.8421V30.421C2 30.8398 2.16635 31.2414 2.46246 31.5375C2.75857 31.8336 3.16018 32 3.57895 32H30.4211C30.8398 32 31.2414 31.8336 31.5375 31.5375C31.8336 31.2414 32 30.8398 32 30.421V13.8421M2 13.8421V5.94736C2 5.52859 2.16635 5.12698 2.46246 4.83087C2.75857 4.53476 3.16018 4.36841 3.57895 4.36841H30.4211C30.8398 4.36841 31.2414 4.53476 31.5375 4.83087C31.8336 5.12698 32 5.52859 32 5.94736V13.8421" stroke="#024959" stroke-width="3.15789" stroke-linejoin="round"/>
<path d="M10.6842 2V8.31579M23.3158 2V8.31579M20.1579 25.6842H24.8947M9.10522 25.6842H13.8421M20.1579 19.3684H24.8947M9.10522 19.3684H13.8421" stroke="#024959" stroke-width="3.15789" stroke-linecap="round" stroke-linejoin="round"/>
</svg>
