<svg width="35" height="27" viewBox="0 0 35 27" fill="none" xmlns="http://www.w3.org/2000/svg">
<path d="M29.6139 2.21669C27.3972 1.18335 24.9972 0.433338 22.4972 0C22.4532 0.000626181 22.4113 0.0185982 22.3805 0.0500009C22.0805 0.600007 21.7305 1.31668 21.4972 1.86669C18.8455 1.46693 16.1488 1.46693 13.4971 1.86669C13.2638 1.30001 12.9137 0.600007 12.5971 0.0500009C12.5804 0.0166672 12.5304 0 12.4804 0C9.98038 0.433338 7.59702 1.18335 5.36367 2.21669C5.347 2.21669 5.33033 2.23336 5.31367 2.25002C0.780282 9.03343 -0.469732 15.6335 0.146942 22.1669C0.146942 22.2002 0.163609 22.2336 0.196942 22.2502C3.19698 24.4503 6.08034 25.7836 8.93037 26.667C8.98037 26.6836 9.03037 26.667 9.04704 26.6336C9.71371 25.7169 10.3137 24.7503 10.8304 23.7336C10.8637 23.6669 10.8304 23.6003 10.7637 23.5836C9.81371 23.2169 8.9137 22.7836 8.03036 22.2836C7.96369 22.2502 7.96369 22.1502 8.01369 22.1002C8.19703 21.9669 8.38037 21.8169 8.5637 21.6836C8.59703 21.6502 8.64704 21.6502 8.68037 21.6669C14.4138 24.2836 20.5972 24.2836 26.2639 21.6669C26.2972 21.6502 26.3472 21.6502 26.3806 21.6836C26.5639 21.8336 26.7472 21.9669 26.9306 22.1169C26.9972 22.1669 26.9972 22.2669 26.9139 22.3002C26.0472 22.8169 25.1306 23.2336 24.1805 23.6003C24.1139 23.6169 24.0972 23.7003 24.1139 23.7503C24.6472 24.7669 25.2472 25.7336 25.8972 26.6503C25.9472 26.667 25.9972 26.6836 26.0472 26.667C28.9139 25.7836 31.7973 24.4503 34.7973 22.2502C34.8307 22.2336 34.8473 22.2002 34.8473 22.1669C35.5807 14.6168 33.6306 8.06675 29.6806 2.25002C29.6639 2.23336 29.6473 2.21669 29.6139 2.21669ZM11.6971 18.1835C9.98038 18.1835 8.54703 16.6002 8.54703 14.6502C8.54703 12.7001 9.94705 11.1168 11.6971 11.1168C13.4638 11.1168 14.8638 12.7168 14.8471 14.6502C14.8471 16.6002 13.4471 18.1835 11.6971 18.1835ZM23.3139 18.1835C21.5972 18.1835 20.1638 16.6002 20.1638 14.6502C20.1638 12.7001 21.5638 11.1168 23.3139 11.1168C25.0805 11.1168 26.4806 12.7168 26.4639 14.6502C26.4639 16.6002 25.0805 18.1835 23.3139 18.1835Z" fill="#024959"/>
</svg>
