<svg width="34" height="33" viewBox="0 0 34 33" fill="none" xmlns="http://www.w3.org/2000/svg">
<path d="M16.6668 0C14.4781 0 12.3108 0.431101 10.2887 1.26869C8.26661 2.10628 6.42927 3.33395 4.88161 4.88161C1.75597 8.00725 0 12.2465 0 16.6668C0 24.0336 4.78339 30.2837 11.4001 32.5004C12.2335 32.6337 12.5001 32.117 12.5001 31.667V28.8503C7.88342 29.8503 6.90007 26.617 6.90007 26.617C6.1334 24.6836 5.05006 24.1669 5.05006 24.1669C3.53337 23.1336 5.16672 23.1669 5.16672 23.1669C6.83341 23.2836 7.71675 24.8836 7.71675 24.8836C9.16677 27.417 11.6168 26.667 12.5668 26.267C12.7168 25.1836 13.1501 24.4503 13.6168 24.0336C9.91678 23.6169 6.0334 22.1836 6.0334 15.8335C6.0334 13.9835 6.66674 12.5001 7.75008 11.3168C7.58342 10.9001 7.00008 9.16677 7.91675 6.91674C7.91675 6.91674 9.31677 6.46674 12.5001 8.61676C13.8168 8.25009 15.2502 8.06676 16.6668 8.06676C18.0835 8.06676 19.5169 8.25009 20.8336 8.61676C24.0169 6.46674 25.4169 6.91674 25.4169 6.91674C26.3336 9.16677 25.7503 10.9001 25.5836 11.3168C26.667 12.5001 27.3003 13.9835 27.3003 15.8335C27.3003 22.2002 23.4003 23.6003 19.6835 24.0169C20.2836 24.5336 20.8336 25.5503 20.8336 27.1003V31.667C20.8336 32.117 21.1002 32.6504 21.9502 32.5004C28.567 30.267 33.3337 24.0336 33.3337 16.6668C33.3337 14.4781 32.9026 12.3108 32.065 10.2887C31.2274 8.26661 29.9998 6.42927 28.4521 4.88161C26.9044 3.33395 25.0671 2.10628 23.045 1.26869C21.0229 0.431101 18.8556 0 16.6668 0Z" fill="#024959"/>
</svg>
