<svg width="34" height="34" viewBox="0 0 34 34" fill="none" xmlns="http://www.w3.org/2000/svg">
<path d="M9.66677 0H23.6669C29.0003 0 33.3337 4.33338 33.3337 9.66677V23.6669C33.3337 26.2307 32.3152 28.6895 30.5024 30.5024C28.6895 32.3152 26.2307 33.3337 23.6669 33.3337H9.66677C4.33338 33.3337 0 29.0003 0 23.6669V9.66677C0 7.10298 1.01846 4.6442 2.83133 2.83133C4.6442 1.01846 7.10298 0 9.66677 0ZM9.33344 3.33337C7.74212 3.33337 6.21598 3.96552 5.09075 5.09075C3.96552 6.21598 3.33337 7.74212 3.33337 9.33344V24.0003C3.33337 27.317 6.01673 30.0003 9.33344 30.0003H24.0003C25.5916 30.0003 27.1177 29.3682 28.243 28.243C29.3682 27.1177 30.0003 25.5916 30.0003 24.0003V9.33344C30.0003 6.01673 27.317 3.33337 24.0003 3.33337H9.33344ZM25.4169 5.8334C25.9695 5.8334 26.4994 6.05289 26.8901 6.4436C27.2808 6.8343 27.5003 7.36421 27.5003 7.91675C27.5003 8.46929 27.2808 8.9992 26.8901 9.38991C26.4994 9.78061 25.9695 10.0001 25.4169 10.0001C24.8644 10.0001 24.3345 9.78061 23.9438 9.38991C23.5531 8.9992 23.3336 8.46929 23.3336 7.91675C23.3336 7.36421 23.5531 6.8343 23.9438 6.4436C24.3345 6.05289 24.8644 5.8334 25.4169 5.8334ZM16.6668 8.33342C18.877 8.33342 20.9966 9.21141 22.5595 10.7742C24.1223 12.337 25.0003 14.4567 25.0003 16.6668C25.0003 18.877 24.1223 20.9966 22.5595 22.5595C20.9966 24.1223 18.877 25.0003 16.6668 25.0003C14.4567 25.0003 12.337 24.1223 10.7742 22.5595C9.21141 20.9966 8.33342 18.877 8.33342 16.6668C8.33342 14.4567 9.21141 12.337 10.7742 10.7742C12.337 9.21141 14.4567 8.33342 16.6668 8.33342ZM16.6668 11.6668C15.3408 11.6668 14.069 12.1936 13.1313 13.1313C12.1936 14.069 11.6668 15.3408 11.6668 16.6668C11.6668 17.9929 12.1936 19.2647 13.1313 20.2024C14.069 21.1401 15.3408 21.6669 16.6668 21.6669C17.9929 21.6669 19.2647 21.1401 20.2024 20.2024C21.1401 19.2647 21.6669 17.9929 21.6669 16.6668C21.6669 15.3408 21.1401 14.069 20.2024 13.1313C19.2647 12.1936 17.9929 11.6668 16.6668 11.6668Z" fill="#024959"/>
</svg>
