<svg width="56" height="53" viewBox="0 0 56 53" fill="none" xmlns="http://www.w3.org/2000/svg">
<path d="M33.1602 20.1738L33.498 21.0029L34.3906 21.0684L48.793 22.1348L37.752 31.46L37.0674 32.0381L37.2812 32.9082L40.7344 46.9062L28.4736 39.3037L27.7129 38.832L26.9521 39.3037L14.6895 46.9062L18.1436 32.9082L18.3584 32.0381L17.6738 31.46L6.63184 22.1348L21.0352 21.0684L21.9268 21.0029L22.2646 20.1738L27.7119 6.82031L33.1602 20.1738Z" fill="#FFE642" stroke="#FFE642" stroke-width="2.88698"/>
<path d="M27.7125 3L20.9281 19.629L3 20.957L16.742 32.5627L12.4404 50L27.7125 40.5307M27.7125 3L34.4969 19.629L52.4251 20.957L38.683 32.5627L42.9846 50L27.7125 40.5307" fill="#FFE642" stroke="#FFE642" stroke-width="5.77396" stroke-linecap="round" stroke-linejoin="round"/>
</svg>
