<svg width="38" height="24" viewBox="0 0 38 24" fill="none" xmlns="http://www.w3.org/2000/svg">
<path d="M0 4.4C0 2.30406 1.70406 0.6 3.8 0.6H34.2C36.2959 0.6 38 2.30406 38 4.4V19.6C38 21.6959 36.2959 23.4 34.2 23.4H3.8C1.70406 23.4 0 21.6959 0 19.6V4.4ZM19 4.4V19.6H34.2V4.4H19ZM10.5866 7.24406C10.3966 6.81656 9.96906 6.5375 9.5 6.5375C9.03094 6.5375 8.60344 6.81656 8.41344 7.24406L4.61344 15.7941C4.34625 16.3938 4.61938 17.0944 5.21906 17.3616C5.81875 17.6287 6.51938 17.3556 6.78656 16.7559L7.315 15.5625H11.685L12.2134 16.7559C12.4806 17.3556 13.1813 17.6228 13.7809 17.3616C14.3806 17.1003 14.6478 16.3938 14.3866 15.7941L10.5866 7.24406ZM9.5 10.6462L10.6281 13.1875H8.37187L9.5 10.6462ZM26.6 6.5375C27.2531 6.5375 27.7875 7.07188 27.7875 7.725V7.9625H31.35C32.0031 7.9625 32.5375 8.49688 32.5375 9.15C32.5375 9.80313 32.0031 10.3375 31.35 10.3375H31.2312L31.1363 10.6047C30.6078 12.0534 29.8062 13.3716 28.785 14.4878C28.8384 14.5234 28.8919 14.5531 28.9453 14.5828L30.0675 15.2537C30.6316 15.5922 30.8097 16.3225 30.4772 16.8806C30.1447 17.4388 29.4084 17.6228 28.8503 17.2903L27.7281 16.6194C27.4609 16.4591 27.2056 16.2928 26.9503 16.1147C26.3209 16.56 25.65 16.9459 24.9316 17.2666L24.7178 17.3616C24.1181 17.6287 23.4175 17.3556 23.1503 16.7559C22.8831 16.1563 23.1562 15.4556 23.7559 15.1884L23.9697 15.0934C24.3497 14.9213 24.7178 14.7312 25.0681 14.5116L24.3438 13.7872C23.8806 13.3241 23.8806 12.57 24.3438 12.1069C24.8069 11.6437 25.5609 11.6437 26.0241 12.1069L26.8909 12.9738L26.9206 13.0034C27.6569 12.2256 28.2566 11.3231 28.69 10.3316L26.6 10.3375H22.325C21.6719 10.3375 21.1375 9.80313 21.1375 9.15C21.1375 8.49688 21.6719 7.9625 22.325 7.9625H25.4125V7.725C25.4125 7.07188 25.9469 6.5375 26.6 6.5375Z" fill="#012E40"/>
</svg>
